<svg data-name="Layer 1" xmlns="http://www.w3.org/2000/svg" viewBox="0 0 88 88"><title>Decorative Illustration</title><desc>Decorative Illustration</desc>
    <defs>
        <pattern id="a___390658789" data-name="2/2 - black" width="4" height="4" patternTransform="translate(0 -6.8)" patternUnits="userSpaceOnUse" viewBox="0 0 4 4">
            <path fill="none" d="M0 0h4v4H0z"></path>
            <path d="M0 0h2v2H0z"></path>
        </pattern>
    </defs>
    <path d="M75.54 31.63a31.62 31.62 0 0 0-1.88-2.71 9.45 9.45 0 0 0 7.09-9.14H66.07a11.85 11.85 0 0 1-5.32-1.28 46.46 46.46 0 0 0-20.84-4.81C17.87 13.68 0 28.3 0 46.34c0 8.26 3.76 15.8 9.94 21.55a12.52 12.52 0 0 1 4 9.17v4.16h8.17v-5.68A47.08 47.08 0 0 0 39.91 79c.44 0 .87 0 1.3-.05V79a37.15 37.15 0 0 0 15.72-3.2v5.42h8.17v-5a12.79 12.79 0 0 1 3.9-9.09c6.83-6.76 11.42-13.9 19-13.9V40.6c-4.46 0-8.45-3.74-12.46-8.97z" style="fill: rgb(30, 150, 190);"></path>
    <path d="M0 45.74v.59c0 8.26 3.76 15.8 9.94 21.55a12.52 12.52 0 0 1 4 9.17v4.16h8.17v-5.67A47.08 47.08 0 0 0 39.91 79c.44 0 .87 0 1.3-.05V79a37.15 37.15 0 0 0 15.72-3.2v5.42h8.17v-5a12.79 12.79 0 0 1 3.9-9.09c6.83-6.76 11.42-13.9 19-13.9v-7.49H0z" fill="url(#a___390658789)"></path>
    <path d="M40.05 20.62a25 25 0 1 1 0 50.1v-50.1z" fill="#d6d6d5"></path>
    <path d="M40.05 20.62a25 25 0 1 0 0 50.1v-50.1z" style="fill: rgb(163, 233, 236);"></path>
    <path d="M10.91 26.12A10.92 10.92 0 0 1 0 15.21a8.94 8.94 0 0 1 8.93-8.93 7.35 7.35 0 0 1 7.34 7.34 6.08 6.08 0 0 1-6.07 6.08 5.07 5.07 0 0 1-5.06-5.06 4.25 4.25 0 0 1 4.25-4.25v2a2.25 2.25 0 0 0-2.25 2.25 3.06 3.06 0 0 0 3.06 3.06 4.08 4.08 0 0 0 4.08-4.07 5.35 5.35 0 0 0-5.35-5.35A6.94 6.94 0 0 0 2 15.21a8.92 8.92 0 0 0 8.91 8.91v2z" style="fill: rgb(30, 150, 190);"></path>
    <path d="M46.38 55.77H29.17v-2h17.21a3.55 3.55 0 1 0 0-7.1H33.72a5.55 5.55 0 0 1 0-11.1h17.21v2H33.72a3.55 3.55 0 0 0 0 7.1h12.66a5.55 5.55 0 1 1 0 11.1z"></path>
    <path d="M35.11 26.12h2v38.81h-2zm7.89 0h2v38.81h-2z"></path>
</svg>
