<svg data-name="Layer 1" xmlns="http://www.w3.org/2000/svg" viewBox="0 0 88 88"><title>Decorative Illustration</title><desc>Decorative Illustration</desc>
    <defs>
        <clipPath id="a___1127826719">
            <path fill="none" d="M0 0h88v88H0z"></path>
        </clipPath>
        <pattern id="b___1127826719" data-name="Unnamed Pattern 3" width="4" height="4" patternTransform="translate(-3.8 -.6)" patternUnits="userSpaceOnUse" viewBox="0 0 4 4">
            <path fill="none" d="M0 0h4v4H0z"></path>
            <path d="M0 0h2v2H0z"></path>
        </pattern>
    </defs>
    <rect x="33.34" width="40.66" height="69.15" rx="2.22" ry="2.22"></rect>
    <path d="M37.41 9.36h32.53v50.57H37.41z" style="fill: rgb(163, 233, 236);"></path>
    <path d="M37.41 9.36h32.53v50.57H37.41z" style="fill: rgb(163, 233, 236);"></path>
    <path fill="#fff" d="M52.67 9.36h2v26.13h-2z"></path>
    <path fill="#fff" d="M37.41 34.49h32.53v2H37.41z"></path>
    <path fill="#fff" d="M45.39 35.49h2v19.17h-2zm16.29 0h2v19.17h-2z"></path>
    <path d="M56.21 65.91A1.17 1.17 0 0 1 55 67.08h-2.7a1.17 1.17 0 0 1-1.17-1.17v-2.74A1.17 1.17 0 0 1 52.3 62H55a1.17 1.17 0 0 1 1.17 1.17v2.73z" style="fill: rgb(30, 150, 190);"></path>
    <rect x="49.68" y="4.02" width="7.98" height="1.45" rx=".72" ry=".72" fill="#a5a5a5"></rect>
    <rect x="52.43" y="63.31" width="2.47" height="2.47" rx=".43" ry=".43"></rect>
    <g clip-path="url(#a___1127826719)">
        <circle cx="54.02" cy="71.49" r="16.37"></circle>
        <path d="M81.4 60.84l-2.77-2.77a42.26 42.26 0 0 0-16.32-10.14l-27.78-9.42-27-10.67a116.23 116.23 0 0 0-42.64-8.1h-58.8a116.22 116.22 0 0 0-38.8 6.67l-13.94 4.94a42.37 42.37 0 0 1-14.15 2.43h-10.43a.77.77 0 0 0-.54 1.31l.47.47a5 5 0 0 1 1.48 3.56v7.1a12.2 12.2 0 0 1-3.57 8.63 7.75 7.75 0 0 0-2.27 5.48v8.2a13.26 13.26 0 0 0 13.26 13.26H70.24a18.38 18.38 0 0 0 13-5.38 5.22 5.22 0 0 0 1.53-3.69V69a11.52 11.52 0 0 0-3.37-8.16z" style="fill: rgb(30, 150, 190);"></path>
        <path d="M-170 79.42a13.19 13.19 0 0 0 7.54 2.36h232.7a18.38 18.38 0 0 0 9-2.36H-170z"></path>
        <path d="M-39.63 27.84l27 10.67 7.49 2.54h28.76a1.47 1.47 0 0 0 .54-2.84l-18-7.08a112.23 112.23 0 0 0-41.34-7.86h-18.7a116.22 116.22 0 0 1 14.25 4.57z" fill="#fff"></path>
        <path d="M24.16 38.21l-18-7.08a112.34 112.34 0 0 0-25.45-6.74l16.68 16.66h26.23a1.47 1.47 0 0 0 .54-2.84zm-43.29 43.57V71.49A18.84 18.84 0 0 1-.29 52.65a18.84 18.84 0 0 1 18.84 18.84v10.29"></path>
        <circle cx="-.29" cy="71.49" r="16.37"></circle>
        <circle cx="-.29" cy="71.49" r="11.04" fill="#fff"></circle>
        <path d="M5.08 66.12l-4 4a2 2 0 0 1 0 2.76l4 4a7.59 7.59 0 0 0 0-10.76z" fill="#d6d6d5"></path>
        <path d="M19.52 60.59l.33.33a16.26 16.26 0 0 0 11.5 4.76h12.9a.78.78 0 0 0 .55-1.32l-3.2-3.2a6.45 6.45 0 0 0-4.6-1.89H20a.78.78 0 0 0-.48 1.32z" fill="#fff"></path>
        <path d="M44.72 60.81L48.87 65a7 7 0 0 0 5 2.06H68.6a7 7 0 0 0 5-2.06l4.16-4.16a.91.91 0 0 0-.64-1.55H45.36a.91.91 0 0 0-.64 1.52z"></path>
        <path d="M58.2 62.32l1.38 1.38a4.39 4.39 0 0 0 3.11 1.3 4.39 4.39 0 0 0 3.1-1.29l1.38-1.38a.59.59 0 0 0-.42-1h-8.13a.59.59 0 0 0-.42.99zm19.99 3.36h6.1a11.52 11.52 0 0 0-2.89-4.85l-.09-.09c-.16.13-.31.27-.46.42l-3.2 3.2a.78.78 0 0 0 .54 1.32z" fill="#fff"></path>
        <path d="M28.22 76.46h55l.07-.07a5.22 5.22 0 0 0 1.53-3.69v-1.16h-7.17c-2.06 0-3.34 2.46-3.34 2.46H48.23s-1.23-2.46-3.45-2.46H31.35a4.2 4.2 0 0 0-3 1.23L27.18 74a1.46 1.46 0 0 0 1.04 2.46z" fill="url(#b___1127826719)"></path>
        <rect x="55.49" y="71.34" width="14.4" height="5.12" rx=".78" ry=".78" fill="#fff"></rect>
    </g>
    <path d="M53.67 13.79v21.7a1.48 1.48 0 0 0 1.44-1.05l4-12.47a5.88 5.88 0 0 0-5.44-8.18z"></path>
    <path d="M47.79 19.67A5.88 5.88 0 0 0 48 21a5.84 5.84 0 0 0 .29.91l4 12.51a1.48 1.48 0 0 0 1.44 1.05V13.79a5.88 5.88 0 0 0-5.94 5.88z"></path>
    <circle cx="53.67" cy="19.67" r="2.27" fill="#fff"></circle>
    <path d="M73.72 6.79h.75v5.13h-.75z"></path>
</svg>
