<svg data-name="Layer 1" xmlns="http://www.w3.org/2000/svg" viewBox="0 0 88 88" ><title>Decorative Illustration</title><desc>Decorative Illustration</desc>
  <defs>
      <clipPath id="a___1569785765">
          <circle cx="44.04" cy="44" r="43.65" fill="none"></circle>
      </clipPath>
      <pattern id="b___1569785765" data-name="2x2 - Black" width="4" height="4" patternTransform="matrix(.8 0 0 .8 5.7 4.5)" patternUnits="userSpaceOnUse" viewBox="0 0 4 4">
          <path fill="none" d="M0 0h4v4H0z"></path>
          <path d="M0 0h2v2H0z"></path>
      </pattern>
  </defs>
  <path d="M17.07 74.68h10.25v8.95H17.07z" style="fill: rgb(30, 150, 190);"></path>
  <g clip-path="url(#a___1569785765)">
      <path fill="#d6d6d5" d="M90.75 90.31H-1.6v-93.5h92.35z"></path>
      <path d="M71.01 87.65H17.08V61.3a14.8 14.8 0 0 1 14.8-14.8h24.33a14.8 14.8 0 0 1 14.8 14.8v26.35z" style="fill: rgb(30, 150, 190);"></path>
      <circle cx="40.02" cy="22.61" r="11.58" fill="#f8f8f9"></circle>
      <path d="M35.06 46.5h8.32v-4.3a12.59 12.59 0 0 0-3.69-8.9l-1-1A12.59 12.59 0 0 1 35 23.42h-2.29V46.5h2.35z"></path>
      <path fill="#f8f8f9" d="M51.6 46.5H36.26V28.61H51.6z"></path>
      <path fill="url(#b___1569785765)" d="M17.07 63.76h53.94v23.89H17.07z"></path>
      <path d="M40 38.83h-9.41a2.16 2.16 0 0 1-2.16-2.16V22.61H40v16.22z" fill="#f8f8f9"></path>
      <path d="M28.44 25v4.61h-1.16a.54.54 0 0 1-.38-.92A5.23 5.23 0 0 0 28.44 25z" fill="#f8f8f9"></path>
      <path d="M40 11a11.24 11.24 0 0 1 11.6 11.29v17.06l-4-4a5.07 5.07 0 0 1-1.48-3.58v-5.93a1.79 1.79 0 0 0-1.8-1.84 1.79 1.79 0 0 0-1.79 1.79v.27h-1A3.14 3.14 0 0 1 38.36 23v-1.5a2.28 2.28 0 0 0-2.28-2.28h-7.14A11.59 11.59 0 0 1 40 11z"></path>
      <path d="M39.77 21.97H25.18v-.48a6.57 6.57 0 0 1 6.56-6.6h8v7.08z"></path>
      <path d="M36.27 46.5h15.34v41.03H36.27z" style="fill: rgb(163, 233, 236);"></path>
      <path d="M43.97 54.13h-.1a7.63 7.63 0 0 1-7.63-7.63H51.6a7.63 7.63 0 0 1-7.63 7.63z" fill="#f8f8f9"></path>
      <path d="M51.6 46.5h8.32v-4.3a12.59 12.59 0 0 0-3.69-8.9l-1-1a12.59 12.59 0 0 1-3.69-8.9h-5.42V41a5.49 5.49 0 0 0 5.48 5.5z"></path>
  </g>
  <ellipse cx="67.07" cy="10.13" rx="10.32" ry="9.78" fill="#fff"></ellipse>
  <path d="M57 12.35l7.84 23.31a2.32 2.32 0 0 0 4.41 0l7.84-23.31H57z" fill="#fff"></path>
  <ellipse cx="67.07" cy="10.13" rx="4.75" ry="4.5" style="fill: rgb(163, 233, 236);"></ellipse>
  <path fill="#f8f8f9" d="M7.16 54.98h6.76v3.27H7.16z"></path>
  <path d="M5.77 58.25h11.3v25.38h-3.3a8 8 0 0 1-8-8V58.25z" style="fill: rgb(30, 150, 190);"></path>
  <rect x="8.84" y="38.38" width="8.23" height="17.2" rx="1.18" ry="1.18" style="fill: rgb(163, 233, 236);"></rect>
  <rect x="7.66" y="38.38" width="8.23" height="17.2" rx="1.18" ry="1.18"></rect>
  <path d="M13.92 52.59v-4.25H12a1.93 1.93 0 0 0 1.93-1.93H6.54a2.21 2.21 0 0 0-2.21 2.21v2.47a3.09 3.09 0 0 0 .9 2.18l1.87 1.88a4 4 0 0 0 2.83 1.17h.25a3.74 3.74 0 0 0 3.74-3.73z" fill="#f8f8f9"></path>
</svg>
