<svg xmlns="http://www.w3.org/2000/svg" version="1.0" viewBox="0 0 162.46 262.76" width="162.46" height="262.76">
  <defs/>
  <defs>
    <radialGradient id="a" cx="81.863" cy="255.78" r="11.44" gradientTransform="translate(1283 176.85)" gradientUnits="userSpaceOnUse">
      <stop offset="0" stop-color="#cfcfcf"/>
      <stop offset="1" stop-color="#a8a8a8"/>
    </radialGradient>
    <radialGradient id="b" cx="81.228" cy="210.36" r="20.899" gradientUnits="userSpaceOnUse">
      <stop offset="0" stop-color="#fff"/>
      <stop offset="1" stop-color="#818181"/>
    </radialGradient>
    <radialGradient id="c" cx="80.594" cy="219.56" r="21.209" gradientUnits="userSpaceOnUse">
      <stop offset=".332" stop-color="#fff"/>
      <stop offset="1" stop-color="#a1a1a1"/>
    </radialGradient>
    <radialGradient id="d" cx="80.594" cy="228.44" r="21.209" gradientUnits="userSpaceOnUse">
      <stop offset=".332" stop-color="#fff"/>
      <stop offset="1" stop-color="#a1a1a1"/>
    </radialGradient>
    <radialGradient id="e" cx="80.594" cy="237.33" r="21.209" gradientUnits="userSpaceOnUse">
      <stop offset=".332" stop-color="#fff"/>
      <stop offset="1" stop-color="#a1a1a1"/>
    </radialGradient>
    <radialGradient id="f" cx="80.594" cy="246.21" r="21.209" gradientUnits="userSpaceOnUse">
      <stop offset=".332" stop-color="#fff"/>
      <stop offset="1" stop-color="#a1a1a1"/>
    </radialGradient>
  </defs>
  <path fill="#6e6e6e" d="M72.4 256.41h19.038v6.346H72.4z"/>
  <path fill="url(#a)" d="M1349 429.46h31.729v6.346H1349z" transform="translate(-1283 -176.85)"/>
  <path fill="#fd5" d="M162.5 71.6C162.5 32.06 126.1 0 81.2 0 36.4 0 0 32.06 0 71.6c0 15.62 5.8 30.04 15.4 41.81 1.1 1.6 33.3 47.06 36 66.23 2.8 19.53 2.8 24.74 2.8 24.74l15.3.51-.1.79 11.8-.4 11.8.4v-.79l15.3-.51s0-5.21 2.8-24.74c2.7-19.18 34.9-64.63 36-66.23 9.6-11.77 15.4-26.19 15.4-41.81z"/>
  <g fill="none" stroke="#6d6868" stroke-width=".75" opacity=".39">
    <path d="M79.959 93.955L74.882 208.18M83.767 93.955l2.538 114.225"/>
  </g>
  <path fill="#fea" d="M81.2 0l-.4 3.28 2.1 15.79c-.7.14-1.4.3-2.1.44 94.8 18.45 42.3 89.68 42.3 89.68L93 205.68l15.3-1.31c-7.2-21.57 30.1-81.22 30.1-81.22C210.7 14 81.2 0 81.2 0zM80.8 3.28L80.4 0S-49.1 14 23.3 123.15c0 0 37.2 59.65 30 81.23l15.3 1.3-30.1-96.49s-52.4-71.23 42.3-89.68c-.7-.14-1.4-.3-2.1-.44l2.1-15.79z" opacity=".26"/>
  <path fill="#fea" d="M80.8 3.28l-2.1 15.79c.7.14 1.4.3 2.1.44.7-.14 1.4-.3 2.1-.44L80.8 3.28z" opacity=".26"/>
  <path fill="#f4eed7" d="M80.8 3.28l-2.1 15.79c.7.14 1.4.3 2.1.44.7-.14 1.4-.3 2.1-.44L80.8 3.28z" opacity=".26"/>
  <path fill="#fff6d5" d="M44.699 12.747s-57.345 43.39-32.667 87.051C32.248 140.11-7.651 60.943 44.699 12.747z" opacity=".54"/>
  <path fill="url(#b)" d="M109.78 210.36c0 4.2-3.41 7.61-7.61 7.61H60.286a7.614 7.614 0 01-7.615-7.61c0-4.21 3.409-7.62 7.615-7.62h41.884c4.2 0 7.61 3.41 7.61 7.62z"/>
  <path fill="none" stroke="#6d6868" stroke-width=".75" d="M109.78 204.01H52.671"/>
  <path fill="url(#c)" d="M50.768 216.39h59.652v6.346H50.768z"/>
  <path fill="none" stroke="#afafaf" stroke-width=".75" d="M54.575 224.64h53.305"/>
  <g>
    <path fill="url(#d)" d="M50.768 225.27h59.652v6.346H50.768z"/>
    <path fill="none" stroke="#afafaf" stroke-width=".75" d="M54.575 233.52h53.305"/>
  </g>
  <g>
    <path fill="url(#e)" d="M50.768 234.16h59.652v6.346H50.768z"/>
    <path fill="none" stroke="#afafaf" stroke-width=".75" d="M54.575 242.4h53.305"/>
    <g>
      <path fill="url(#f)" d="M50.768 243.04h59.652v6.346H50.768z"/>
      <path fill="none" stroke="#afafaf" stroke-width=".75" d="M54.575 251.29h53.305"/>
    </g>
  </g>
  <path fill="none" stroke="#fff" stroke-width=".5" d="M71 101.3c4.6 7.05 12 7.05 16.6 0 3.7-5.63 3.7-14.77 0-20.41-2.9-4.5-7.7-4.5-10.6 0-2.4 3.61-2.4 9.46 0 13.06 1.9 2.89 4.9 2.89 6.8.01"/>
  <path fill="#fff6d5" d="M153 54.97s10.3 42.54-17.8 67.64c0 0 18.7-61.23 17.8-67.64z" opacity=".54"/>
</svg>
