<svg xmlns="http://www.w3.org/2000/svg" xml:space="preserve" viewBox="0 0 192 192">
  <defs>
    <clipPath id="a" clipPathUnits="userSpaceOnUse">
      <path d="M0 144h144V0H0Z"/>
    </clipPath>
  </defs>
  <g clip-path="url(#a)" transform="matrix(1.33333 0 0 -1.33333 0 192)">
    <path fill="#e51b24" d="M137.37 71.911c-.005 2.82 2.25 5.102 5.036 5.11a74.116 74.116 0 0 1-1.077 8.416l-.014-.007c-2.69-.732-5.454.89-6.178 3.61-.721 2.723.88 5.518 3.564 6.255h.023a72.189 72.189 0 0 1-3.212 7.84l-.014-.007a5.008 5.008 0 0 0-6.89 1.865c-1.395 2.444-.567 5.565 1.848 6.981a70.217 70.217 0 0 1-5.105 6.724 5.007 5.007 0 0 0-7.128 0c-1.971 1.988-1.971 5.225 0 7.225a72.322 72.322 0 0 1-6.65 5.165v-.005c-1.398-2.436-4.477-3.282-6.885-1.865-2.415 1.41-3.244 4.527-1.851 6.967l.005.013a68.4 68.4 0 0 1-7.744 3.251v-.013c-.723-2.725-3.494-4.34-6.178-3.61-2.69.725-4.286 3.526-3.57 6.25l.005.012a70.69 70.69 0 0 1-8.313 1.105c0-2.827-2.26-5.11-5.036-5.11-2.791 0-5.047 2.283-5.047 5.11a70.617 70.617 0 0 1-8.312-1.105v-.012c.723-2.718-.871-5.525-3.564-6.25-2.692-.73-5.454.885-6.175 3.61v.02a69.518 69.518 0 0 1-7.755-3.258l.007-.006c1.393-2.447.564-5.564-1.842-6.974-2.417-1.417-5.498-.57-6.887 1.865l-.007.005a71.891 71.891 0 0 1-6.648-5.165c1.975-2 1.969-5.23.006-7.218a5.007 5.007 0 0 0-7.133-.007v.007a71.761 71.761 0 0 1-5.11-6.73h.007c2.41-1.417 3.237-4.53 1.846-6.976-1.4-2.448-4.478-3.28-6.887-1.87l-.013.006a72.407 72.407 0 0 1-3.215-7.84h.019c2.692-.732 4.286-3.532 3.563-6.25-.72-2.725-3.487-4.347-6.175-3.608h-.006a71.995 71.995 0 0 1-1.084-8.417c2.782 0 5.035-2.289 5.035-5.109.007-2.814-2.253-5.102-5.035-5.102a71.745 71.745 0 0 1 1.084-8.412h.006c2.688.726 5.456-.89 6.175-3.603.723-2.722-.871-5.53-3.563-6.255h-.02a70.16 70.16 0 0 1 3.216-7.847l.005.007c2.417 1.41 5.495.571 6.895-1.87 1.39-2.444.564-5.558-1.846-6.969h-.007a71.068 71.068 0 0 1 5.11-6.737 4.993 4.993 0 0 0 7.127 0c1.969-1.989 1.969-5.225 0-7.212a70.116 70.116 0 0 1 6.648-5.172v.007a5.022 5.022 0 0 0 6.894 1.871c2.406-1.418 3.235-4.539 1.842-6.98l-.007-.015A71.081 71.081 0 0 1 48.9 4.373l.007.02c.72 2.718 3.483 4.34 6.175 3.602 2.686-.726 4.28-3.519 3.564-6.243l-.007-.005a68.086 68.086 0 0 1 8.32-1.106c0 2.821 2.256 5.104 5.04 5.104 2.783 0 5.043-2.283 5.043-5.097V.641c2.82.2 5.59.571 8.308 1.106v.005c-.716 2.724.88 5.517 3.564 6.243 2.69.737 5.454-.884 6.179-3.603l.005-.019a71.35 71.35 0 0 1 7.744 3.25l-.005.013c-1.393 2.442-.564 5.563 1.846 6.974 2.406 1.41 5.492.577 6.89-1.864v-.007a71.471 71.471 0 0 1 6.65 5.166v.006c-1.971 1.987-1.971 5.223 0 7.212a4.995 4.995 0 0 0 7.128 0 69.336 69.336 0 0 1 5.105 6.732v.005c-2.415 1.405-3.243 4.525-1.847 6.97a5.01 5.01 0 0 0 6.884 1.87l.019-.013a72.203 72.203 0 0 1 3.212 7.846l-.023.006c-2.683.725-4.285 3.526-3.564 6.244.717 2.724 3.488 4.34 6.178 3.614h.014a73.51 73.51 0 0 1 1.077 8.412c-2.785 0-5.041 2.288-5.036 5.102"/>
    <path fill="#fff" d="M87.788 60.418c-2.724 0-4.932 2.237-4.932 4.994 0 2.762 2.208 4.993 4.932 4.993 2.722 0 4.936-2.231 4.936-4.993 0-2.757-2.214-4.994-4.936-4.994m6.792 52.838H80.869l-10.905-82.67h11.889l2.557 20.089h6.782l2.56-20.09h11.808zm-42.265.5c-4.853 0-8.555-1.39-11.116-4.18-2.558-2.787-3.84-6.493-3.84-11.12v-53.66c0-4.903 1.183-8.584 3.55-11.032 2.373-2.456 6.139-3.686 11.318-3.686 4.629 0 8.206 1.243 10.74 3.724 2.534 2.481 3.799 6.114 3.799 10.916v24.995H51.728V59.77h3.8V44.124c0-.944-.345-1.713-1.048-2.297-.698-.583-1.583-.876-2.66-.876-1.396 0-2.29.358-2.664 1.088a4.834 4.834 0 0 0-.566 2.256v54.16c0 .391.055.846.168 1.378.102.532.292 1.02.564 1.47.268.44.634.82 1.089 1.127.459.307 1.063.453 1.816.453v-.01c.062.005.106.01.164.01.756 0 1.366-.146 1.82-.453a3.723 3.723 0 0 0 1.097-1.128c.268-.45.452-.937.564-1.469a7.39 7.39 0 0 0 .157-1.378V85.967h11.238v12.488c0 4.628-1.28 8.334-3.841 11.121-2.567 2.79-6.27 4.18-11.111 4.18"/>
  </g>
</svg>
