<svg
  version="1.1"
  id="Layer_1"
  xmlns="http://www.w3.org/2000/svg"
  xmlns:xlink="http://www.w3.org/1999/xlink"
  x="0px"
  y="0px"
  viewBox="0 0 107.5 108.1"
  style="enable-background: new 0 0 107.5 108.1;"
  xml:space="preserve"
  width="107.5"
  height="108.1"
>
  <style type="text/css">
    .st0 {
      fill: #ed203b;
    }
    .st1 {
      fill: #ffffff;
    }
    .st2 {
      fill: #231f20;
    }
  </style>
  <g>
    <g>
      <g>
        <path
          class="st0"
          d="M84.5,47.5c0-1.3,1.1-2.4,2.4-2.4c-0.1-1.3-0.3-2.6-0.5-3.9l0,0c-1.3,0.3-2.6-0.4-2.9-1.7
				c-0.3-1.3,0.4-2.6,1.7-2.9h0c-0.4-1.2-0.9-2.5-1.5-3.6l0,0c-1.1,0.7-2.6,0.3-3.2-0.9c-0.7-1.1-0.3-2.6,0.9-3.2
				c-0.7-1.1-1.5-2.1-2.4-3.1c-0.9,0.9-2.4,0.9-3.3,0c-0.9-0.9-0.9-2.4,0-3.4c-1-0.9-2-1.7-3.1-2.4v0c-0.7,1.1-2.1,1.5-3.2,0.9
				c-1.1-0.7-1.5-2.1-0.9-3.2l0,0c-1.2-0.6-2.4-1.1-3.6-1.5v0c-0.3,1.3-1.6,2-2.9,1.7c-1.3-0.3-2-1.6-1.7-2.9l0,0
				c-1.3-0.2-2.6-0.4-3.9-0.5c0,1.3-1.1,2.4-2.4,2.4c-1.3,0-2.4-1.1-2.4-2.4c-1.3,0.1-2.6,0.3-3.9,0.5v0c0.3,1.3-0.4,2.6-1.7,2.9
				c-1.3,0.3-2.5-0.4-2.9-1.7v0c-1.2,0.4-2.5,0.9-3.6,1.5l0,0c0.7,1.1,0.3,2.6-0.9,3.2c-1.1,0.7-2.6,0.3-3.2-0.9l0,0
				c-1.1,0.7-2.1,1.5-3.1,2.4c0.9,0.9,0.9,2.4,0,3.4c-0.9,0.9-2.4,0.9-3.3,0v0c-0.9,1-1.7,2-2.4,3.1h0c1.1,0.7,1.5,2.1,0.9,3.2
				c-0.7,1.1-2.1,1.5-3.2,0.9l0,0c-0.6,1.2-1.1,2.4-1.5,3.6h0c1.3,0.3,2,1.6,1.7,2.9c-0.3,1.3-1.6,2-2.9,1.7h0
				c-0.2,1.3-0.4,2.6-0.5,3.9c1.3,0,2.4,1.1,2.4,2.4c0,1.3-1.1,2.4-2.4,2.4c0.1,1.3,0.3,2.6,0.5,3.9h0c1.3-0.3,2.6,0.4,2.9,1.7
				c0.3,1.3-0.4,2.6-1.7,2.9h0c0.4,1.2,0.9,2.5,1.5,3.6l0,0c1.1-0.7,2.6-0.3,3.2,0.9c0.7,1.1,0.3,2.6-0.9,3.2h0
				c0.7,1.1,1.5,2.1,2.4,3.1c0.9-0.9,2.4-0.9,3.3,0c0.9,0.9,0.9,2.4,0,3.3c1,0.9,2,1.7,3.1,2.4v0c0.7-1.1,2.1-1.5,3.2-0.9
				c1.1,0.7,1.5,2.1,0.9,3.2l0,0c1.2,0.6,2.4,1.1,3.6,1.5l0,0c0.3-1.3,1.6-2,2.9-1.7c1.3,0.3,2,1.6,1.7,2.9l0,0
				c1.3,0.2,2.6,0.4,3.9,0.5c0-1.3,1.1-2.4,2.4-2.4c1.3,0,2.4,1.1,2.4,2.4v0c1.3-0.1,2.6-0.3,3.9-0.5v0c-0.3-1.3,0.4-2.6,1.7-2.9
				c1.3-0.3,2.6,0.4,2.9,1.7l0,0c1.2-0.4,2.4-0.9,3.6-1.5l0,0c-0.7-1.1-0.3-2.6,0.9-3.2c1.1-0.7,2.6-0.3,3.2,0.9v0
				c1.1-0.7,2.1-1.5,3.1-2.4v0c-0.9-0.9-0.9-2.4,0-3.3c0.9-0.9,2.4-0.9,3.3,0c0.9-1,1.7-2,2.4-3.1v0c-1.1-0.7-1.5-2.1-0.9-3.2
				c0.6-1.1,2.1-1.5,3.2-0.9l0,0c0.6-1.2,1.1-2.4,1.5-3.6l0,0c-1.3-0.3-2-1.6-1.7-2.9c0.3-1.3,1.6-2,2.9-1.7h0
				c0.2-1.3,0.4-2.6,0.5-3.9C85.6,49.8,84.5,48.8,84.5,47.5"
        />
      </g>
      <g>
        <path
          class="st1"
          d="M64.5,28.3h-6.4L53,66.7h5.6l1.2-9.3h3.2l1.2,9.3h5.5L64.5,28.3z M61.3,52.8c-1.3,0-2.3-1-2.3-2.3
				c0-1.3,1-2.3,2.3-2.3s2.3,1,2.3,2.3C63.6,51.8,62.6,52.8,61.3,52.8z"
        />
        <path
          class="st1"
          d="M44.7,28c-2.3,0-4,0.6-5.2,1.9c-1.2,1.3-1.8,3-1.8,5.2v24.9c0,2.3,0.6,4,1.7,5.1c1.1,1.1,2.9,1.7,5.3,1.7
				c2.2,0,3.8-0.6,5-1.7c1.2-1.2,1.8-2.8,1.8-5.1V48.5h-7v4.6h1.8v7.3c0,0.4-0.2,0.8-0.5,1.1c-0.3,0.3-0.7,0.4-1.2,0.4
				c-0.7,0-1.1-0.2-1.2-0.5c-0.2-0.3-0.3-0.7-0.3-1V35.1c0-0.2,0-0.4,0.1-0.6c0-0.2,0.1-0.5,0.3-0.7c0.1-0.2,0.3-0.4,0.5-0.5
				c0.2-0.1,0.5-0.2,0.8-0.2v0c0,0,0,0,0.1,0c0.4,0,0.6,0.1,0.9,0.2c0.2,0.1,0.4,0.3,0.5,0.5c0.1,0.2,0.2,0.4,0.3,0.7
				c0,0.2,0.1,0.5,0.1,0.6v5.8h5.3v-5.8c0-2.1-0.6-3.9-1.8-5.2C48.7,28.7,47,28,44.7,28z"
        />
      </g>
    </g>
    <g>
      <g>
        <path
          class="st2"
          d="M21.3,85.9c0.3,0,0.7,0,0.9,0.1c0.3,0.1,0.5,0.2,0.6,0.4c0.2,0.2,0.3,0.4,0.4,0.6c0.1,0.2,0.1,0.5,0.1,0.8
				l-1.5,0.3c0-0.2-0.1-0.4-0.1-0.6c-0.1-0.2-0.2-0.2-0.4-0.2c-0.1,0-0.2,0-0.2,0.1c-0.1,0-0.1,0.1-0.1,0.1c0,0.1-0.1,0.1-0.1,0.2
				c0,0.1,0,0.1,0,0.2v3.9c0,0.1,0,0.2,0.1,0.3c0.1,0.1,0.2,0.1,0.4,0.1c0.1,0,0.3,0,0.4-0.1c0.1-0.1,0.1-0.2,0.1-0.3v-1.2h-0.5
				v-1.3h2v2.4c0,0.6-0.2,1.1-0.5,1.4c-0.3,0.3-0.8,0.5-1.4,0.5c-0.7,0-1.2-0.2-1.5-0.5c-0.3-0.3-0.5-0.8-0.5-1.5v-3.9
				c0-0.6,0.2-1.1,0.5-1.5C20.1,86.1,20.6,85.9,21.3,85.9z"
        />
        <path
          class="st2"
          d="M23.8,93.6v-7.7h3.5v1.4h-2V89h1.8v1.4h-1.8v1.7h2v1.4H23.8z"
        />
        <path
          class="st2"
          d="M30.7,89.6v-3.6h1.5v7.7h-1.3L30,91.4l-0.5-1.5h-0.1v3.7h-1.5v-7.7h1.3l0.9,2.2L30.7,89.6L30.7,89.6z"
        />
        <path
          class="st2"
          d="M33,93.6v-7.7h3.5v1.4h-2V89h1.8v1.4h-1.8v1.7h2v1.4H33z"
        />
        <path
          class="st2"
          d="M39,85.9c0.3,0,0.6,0,0.9,0.1c0.3,0.1,0.5,0.2,0.7,0.4c0.2,0.2,0.3,0.4,0.5,0.7c0.1,0.3,0.2,0.6,0.2,1.1
				c0,0.5-0.1,0.9-0.2,1.3c-0.1,0.3-0.4,0.6-0.6,0.8l1.1,3.3h-1.5l-0.9-3h-0.3v3h-1.5v-7.7H39z M38.6,87.4v1.8h0.2
				c0.1,0,0.2,0,0.3,0c0.1,0,0.2-0.1,0.3-0.1c0.1-0.1,0.1-0.2,0.2-0.3c0-0.1,0.1-0.3,0.1-0.5c0-0.3-0.1-0.5-0.2-0.6
				c-0.1-0.1-0.3-0.2-0.6-0.2H38.6z"
        />
        <path
          class="st2"
          d="M44.3,92.1h-1.1l-0.2,1.5h-1.6l1.5-7.7h1.8l1.5,7.7h-1.6L44.3,92.1z M43.5,89.5l-0.2,1.2h0.7l-0.1-1.2
				l-0.2-1.6h-0.1L43.5,89.5z"
        />
        <path class="st2" d="M46.5,93.6v-7.7H48v6.2h2v1.4H46.5z" />
      </g>
      <path
        class="st2"
        d="M54.9,92.1h-1.1l-0.2,1.5H52l1.5-7.7h1.8l1.5,7.7h-1.6L54.9,92.1z M54.2,89.5L54,90.7h0.7l-0.1-1.2l-0.2-1.6
			h-0.1L54.2,89.5z"
      />
      <path
        class="st2"
        d="M61,91.4c0,0.4,0,0.7-0.1,1c-0.1,0.3-0.2,0.5-0.3,0.7c-0.2,0.2-0.4,0.4-0.6,0.5c-0.3,0.1-0.6,0.2-1,0.2
			c-0.4,0-0.7-0.1-0.9-0.2c-0.3-0.1-0.5-0.2-0.6-0.4c-0.2-0.2-0.3-0.4-0.4-0.6C57,92.2,57,92,57,91.7l1.5-0.3c0,0.3,0.1,0.5,0.1,0.6
			c0.1,0.1,0.2,0.2,0.4,0.2c0.1,0,0.2,0,0.3-0.1c0.1-0.1,0.1-0.1,0.1-0.2c0-0.1,0.1-0.2,0.1-0.3c0-0.1,0-0.2,0-0.3
			c0-0.2,0-0.3,0-0.4c0-0.1-0.1-0.2-0.1-0.3c-0.1-0.1-0.1-0.1-0.2-0.2c-0.1-0.1-0.2-0.1-0.4-0.2c-0.4-0.2-0.7-0.3-0.9-0.5
			c-0.2-0.2-0.4-0.3-0.5-0.5c-0.1-0.2-0.2-0.4-0.2-0.6c0-0.2-0.1-0.4-0.1-0.7c0-0.3,0-0.6,0.1-0.9c0.1-0.3,0.2-0.5,0.4-0.7
			c0.2-0.2,0.4-0.3,0.6-0.5c0.3-0.1,0.6-0.2,0.9-0.2c0.4,0,0.7,0.1,1,0.2c0.3,0.1,0.5,0.3,0.6,0.5c0.1,0.2,0.2,0.4,0.3,0.6
			c0.1,0.2,0.1,0.4,0.1,0.7l-1.5,0.3c0-0.1,0-0.2,0-0.3c0-0.1,0-0.2-0.1-0.3c0-0.1-0.1-0.1-0.1-0.2c-0.1,0-0.1-0.1-0.3-0.1
			c-0.1,0-0.2,0-0.2,0.1c-0.1,0-0.1,0.1-0.1,0.2c0,0.1-0.1,0.1-0.1,0.2c0,0.1,0,0.2,0,0.3c0,0.1,0,0.2,0,0.3c0,0.1,0.1,0.2,0.1,0.2
			c0.1,0.1,0.1,0.1,0.3,0.2c0.1,0.1,0.3,0.1,0.5,0.2c0.4,0.1,0.6,0.3,0.8,0.4c0.2,0.2,0.4,0.3,0.5,0.5c0.1,0.2,0.2,0.4,0.2,0.6
			C61,90.8,61,91.1,61,91.4z"
      />
      <path
        class="st2"
        d="M65.5,91.4c0,0.4,0,0.7-0.1,1c-0.1,0.3-0.2,0.5-0.3,0.7c-0.2,0.2-0.4,0.4-0.6,0.5c-0.3,0.1-0.6,0.2-1,0.2
			c-0.4,0-0.7-0.1-0.9-0.2c-0.3-0.1-0.5-0.2-0.6-0.4c-0.2-0.2-0.3-0.4-0.4-0.6c-0.1-0.2-0.1-0.5-0.1-0.8l1.5-0.3
			c0,0.3,0.1,0.5,0.1,0.6c0.1,0.1,0.2,0.2,0.4,0.2c0.1,0,0.2,0,0.3-0.1c0.1-0.1,0.1-0.1,0.1-0.2c0-0.1,0.1-0.2,0.1-0.3
			c0-0.1,0-0.2,0-0.3c0-0.2,0-0.3,0-0.4c0-0.1-0.1-0.2-0.1-0.3c-0.1-0.1-0.1-0.1-0.2-0.2c-0.1-0.1-0.2-0.1-0.4-0.2
			c-0.4-0.2-0.7-0.3-0.9-0.5c-0.2-0.2-0.4-0.3-0.5-0.5c-0.1-0.2-0.2-0.4-0.2-0.6c0-0.2-0.1-0.4-0.1-0.7c0-0.3,0-0.6,0.1-0.9
			c0.1-0.3,0.2-0.5,0.3-0.7c0.2-0.2,0.4-0.3,0.6-0.5c0.3-0.1,0.6-0.2,0.9-0.2c0.4,0,0.7,0.1,1,0.2c0.3,0.1,0.5,0.3,0.6,0.5
			c0.1,0.2,0.2,0.4,0.3,0.6c0.1,0.2,0.1,0.4,0.1,0.7L64,88.1c0-0.1,0-0.2,0-0.3c0-0.1,0-0.2-0.1-0.3c0-0.1-0.1-0.1-0.1-0.2
			c-0.1,0-0.1-0.1-0.3-0.1c-0.1,0-0.2,0-0.2,0.1c-0.1,0-0.1,0.1-0.1,0.2c0,0.1-0.1,0.1-0.1,0.2c0,0.1,0,0.2,0,0.3c0,0.1,0,0.2,0,0.3
			c0,0.1,0.1,0.2,0.1,0.2c0.1,0.1,0.1,0.1,0.3,0.2c0.1,0.1,0.3,0.1,0.5,0.2c0.4,0.1,0.6,0.3,0.8,0.4c0.2,0.2,0.4,0.3,0.5,0.5
			c0.1,0.2,0.2,0.4,0.2,0.6C65.4,90.8,65.5,91.1,65.5,91.4z"
      />
      <path
        class="st2"
        d="M66.1,93.6V86h3.5v1.4h-2V89h1.8v1.4h-1.8v1.7h2v1.4H66.1z"
      />
      <path
        class="st2"
        d="M72.4,92.1l-0.3-1L71.7,90h-0.1v3.6h-1.5V86h1.4l0.8,2.1l0.5,1.5h0.1l0.5-1.6l0.8-2h1.4v7.7h-1.5v-3.6h0
			l-0.4,1.2l-0.3,0.9H72.4z"
      />
      <path
        class="st2"
        d="M79.4,89.6c0.2,0.1,0.3,0.1,0.4,0.3c0.1,0.1,0.2,0.2,0.3,0.4c0.1,0.1,0.1,0.3,0.2,0.5c0,0.2,0,0.3,0,0.5
			c0,0.8-0.2,1.4-0.5,1.8c-0.4,0.4-0.9,0.6-1.6,0.6h-1.7V86h1.7c0.7,0,1.2,0.2,1.6,0.5c0.3,0.4,0.5,0.9,0.5,1.6c0,0.2,0,0.3-0.1,0.5
			c0,0.2-0.1,0.3-0.2,0.4c-0.1,0.1-0.2,0.3-0.3,0.4C79.6,89.4,79.5,89.5,79.4,89.6L79.4,89.6z M78.8,88.1c0-0.3-0.1-0.5-0.2-0.6
			c-0.1-0.1-0.3-0.1-0.5-0.1h-0.2v1.5h0.2C78.5,88.9,78.8,88.7,78.8,88.1z M78.8,91.2c0-0.3-0.1-0.5-0.2-0.7
			c-0.1-0.1-0.3-0.2-0.5-0.2h-0.3v1.9h0.3c0.1,0,0.3,0,0.3-0.1c0.1-0.1,0.2-0.1,0.2-0.2c0-0.1,0.1-0.2,0.1-0.3
			C78.8,91.4,78.8,91.3,78.8,91.2z"
      />
      <path class="st2" d="M81.1,93.6V86h1.5v6.3h2v1.4H81.1z" />
      <path
        class="st2"
        d="M86.2,88.8l0.3-1.3l0.3-1.5h1.6l-1.5,4.6v3.1h-1.5v-3.1L83.9,86h1.6l0.4,1.5L86.2,88.8L86.2,88.8z"
      />
    </g>
  </g>
</svg>
